<?xml version="1.0" encoding="utf-8" standalone="no"?>
<!DOCTYPE svg PUBLIC "-//W3C//DTD SVG 1.1//EN"
  "http://www.w3.org/Graphics/SVG/1.1/DTD/svg11.dtd">
<svg xmlns:xlink="http://www.w3.org/1999/xlink" width="460.8pt" height="345.6pt" viewBox="0 0 460.8 345.6" xmlns="http://www.w3.org/2000/svg" version="1.1">
 <metadata>
  <rdf:RDF xmlns:dc="http://purl.org/dc/elements/1.1/" xmlns:cc="http://creativecommons.org/ns#" xmlns:rdf="http://www.w3.org/1999/02/22-rdf-syntax-ns#">
   <cc:Work>
    <dc:type rdf:resource="http://purl.org/dc/dcmitype/StillImage"/>
    <dc:date>2025-03-03T13:40:02.950063</dc:date>
    <dc:format>image/svg+xml</dc:format>
    <dc:creator>
     <cc:Agent>
      <dc:title>Matplotlib v3.9.2, https://matplotlib.org/</dc:title>
     </cc:Agent>
    </dc:creator>
   </cc:Work>
  </rdf:RDF>
 </metadata>
 <defs>
  <style type="text/css">*{stroke-linejoin: round; stroke-linecap: butt}</style>
 </defs>
 <g id="figure_1">
  <g id="patch_1">
   <path d="M 0 345.6 
L 460.8 345.6 
L 460.8 0 
L 0 0 
z
" style="fill: #ffffff"/>
  </g>
  <g id="axes_1">
   <g id="patch_2">
    <path d="M 74.18 281.9275 
L 450 281.9275 
L 450 13.100739 
L 74.18 13.100739 
z
" style="fill: #ffffff"/>
   </g>
   <g id="matplotlib.axis_1">
    <g id="xtick_1">
     <g id="line2d_1">
      <path d="M 129.059672 281.9275 
L 129.059672 13.100739 
" clip-path="url(#p00ab8d350a)" style="fill: none; stroke: #b0b0b0; stroke-opacity: 0.3; stroke-linecap: square"/>
     </g>
     <g id="line2d_2">
      <defs>
       <path id="m28f7107f95" d="M 0 0 
L 0 3.5 
" style="stroke: #000000; stroke-width: 0.8"/>
      </defs>
      <g>
       <use xlink:href="#m28f7107f95" x="129.059672" y="281.9275" style="stroke: #000000; stroke-width: 0.8"/>
      </g>
     </g>
     <g id="text_1">
      <!-- 0 -->
      <g transform="translate(123.333422 302.604687) scale(0.18 -0.18)">
       <defs>
        <path id="DejaVuSans-30" d="M 2034 4250 
Q 1547 4250 1301 3770 
Q 1056 3291 1056 2328 
Q 1056 1369 1301 889 
Q 1547 409 2034 409 
Q 2525 409 2770 889 
Q 3016 1369 3016 2328 
Q 3016 3291 2770 3770 
Q 2525 4250 2034 4250 
z
M 2034 4750 
Q 2819 4750 3233 4129 
Q 3647 3509 3647 2328 
Q 3647 1150 3233 529 
Q 2819 -91 2034 -91 
Q 1250 -91 836 529 
Q 422 1150 422 2328 
Q 422 3509 836 4129 
Q 1250 4750 2034 4750 
z
" transform="scale(0.015625)"/>
       </defs>
       <use xlink:href="#DejaVuSans-30"/>
      </g>
     </g>
    </g>
    <g id="xtick_2">
     <g id="line2d_3">
      <path d="M 250.753482 281.9275 
L 250.753482 13.100739 
" clip-path="url(#p00ab8d350a)" style="fill: none; stroke: #b0b0b0; stroke-opacity: 0.3; stroke-linecap: square"/>
     </g>
     <g id="line2d_4">
      <g>
       <use xlink:href="#m28f7107f95" x="250.753482" y="281.9275" style="stroke: #000000; stroke-width: 0.8"/>
      </g>
     </g>
     <g id="text_2">
      <!-- 5 -->
      <g transform="translate(245.027232 302.604687) scale(0.18 -0.18)">
       <defs>
        <path id="DejaVuSans-35" d="M 691 4666 
L 3169 4666 
L 3169 4134 
L 1269 4134 
L 1269 2991 
Q 1406 3038 1543 3061 
Q 1681 3084 1819 3084 
Q 2600 3084 3056 2656 
Q 3513 2228 3513 1497 
Q 3513 744 3044 326 
Q 2575 -91 1722 -91 
Q 1428 -91 1123 -41 
Q 819 9 494 109 
L 494 744 
Q 775 591 1075 516 
Q 1375 441 1709 441 
Q 2250 441 2565 725 
Q 2881 1009 2881 1497 
Q 2881 1984 2565 2268 
Q 2250 2553 1709 2553 
Q 1456 2553 1204 2497 
Q 953 2441 691 2322 
L 691 4666 
z
" transform="scale(0.015625)"/>
       </defs>
       <use xlink:href="#DejaVuSans-35"/>
      </g>
     </g>
    </g>
    <g id="xtick_3">
     <g id="line2d_5">
      <path d="M 372.447293 281.9275 
L 372.447293 13.100739 
" clip-path="url(#p00ab8d350a)" style="fill: none; stroke: #b0b0b0; stroke-opacity: 0.3; stroke-linecap: square"/>
     </g>
     <g id="line2d_6">
      <g>
       <use xlink:href="#m28f7107f95" x="372.447293" y="281.9275" style="stroke: #000000; stroke-width: 0.8"/>
      </g>
     </g>
     <g id="text_3">
      <!-- 10 -->
      <g transform="translate(360.994793 302.604687) scale(0.18 -0.18)">
       <defs>
        <path id="DejaVuSans-31" d="M 794 531 
L 1825 531 
L 1825 4091 
L 703 3866 
L 703 4441 
L 1819 4666 
L 2450 4666 
L 2450 531 
L 3481 531 
L 3481 0 
L 794 0 
L 794 531 
z
" transform="scale(0.015625)"/>
       </defs>
       <use xlink:href="#DejaVuSans-31"/>
       <use xlink:href="#DejaVuSans-30" x="63.623047"/>
      </g>
     </g>
    </g>
    <g id="text_4">
     <!-- SPR shift [$^\circ$] -->
     <g transform="translate(186.73 328.584375) scale(0.24 -0.24)">
      <defs>
       <path id="DejaVuSans-53" d="M 3425 4513 
L 3425 3897 
Q 3066 4069 2747 4153 
Q 2428 4238 2131 4238 
Q 1616 4238 1336 4038 
Q 1056 3838 1056 3469 
Q 1056 3159 1242 3001 
Q 1428 2844 1947 2747 
L 2328 2669 
Q 3034 2534 3370 2195 
Q 3706 1856 3706 1288 
Q 3706 609 3251 259 
Q 2797 -91 1919 -91 
Q 1588 -91 1214 -16 
Q 841 59 441 206 
L 441 856 
Q 825 641 1194 531 
Q 1563 422 1919 422 
Q 2459 422 2753 634 
Q 3047 847 3047 1241 
Q 3047 1584 2836 1778 
Q 2625 1972 2144 2069 
L 1759 2144 
Q 1053 2284 737 2584 
Q 422 2884 422 3419 
Q 422 4038 858 4394 
Q 1294 4750 2059 4750 
Q 2388 4750 2728 4690 
Q 3069 4631 3425 4513 
z
" transform="scale(0.015625)"/>
       <path id="DejaVuSans-50" d="M 1259 4147 
L 1259 2394 
L 2053 2394 
Q 2494 2394 2734 2622 
Q 2975 2850 2975 3272 
Q 2975 3691 2734 3919 
Q 2494 4147 2053 4147 
L 1259 4147 
z
M 628 4666 
L 2053 4666 
Q 2838 4666 3239 4311 
Q 3641 3956 3641 3272 
Q 3641 2581 3239 2228 
Q 2838 1875 2053 1875 
L 1259 1875 
L 1259 0 
L 628 0 
L 628 4666 
z
" transform="scale(0.015625)"/>
       <path id="DejaVuSans-52" d="M 2841 2188 
Q 3044 2119 3236 1894 
Q 3428 1669 3622 1275 
L 4263 0 
L 3584 0 
L 2988 1197 
Q 2756 1666 2539 1819 
Q 2322 1972 1947 1972 
L 1259 1972 
L 1259 0 
L 628 0 
L 628 4666 
L 2053 4666 
Q 2853 4666 3247 4331 
Q 3641 3997 3641 3322 
Q 3641 2881 3436 2590 
Q 3231 2300 2841 2188 
z
M 1259 4147 
L 1259 2491 
L 2053 2491 
Q 2509 2491 2742 2702 
Q 2975 2913 2975 3322 
Q 2975 3731 2742 3939 
Q 2509 4147 2053 4147 
L 1259 4147 
z
" transform="scale(0.015625)"/>
       <path id="DejaVuSans-20" transform="scale(0.015625)"/>
       <path id="DejaVuSans-73" d="M 2834 3397 
L 2834 2853 
Q 2591 2978 2328 3040 
Q 2066 3103 1784 3103 
Q 1356 3103 1142 2972 
Q 928 2841 928 2578 
Q 928 2378 1081 2264 
Q 1234 2150 1697 2047 
L 1894 2003 
Q 2506 1872 2764 1633 
Q 3022 1394 3022 966 
Q 3022 478 2636 193 
Q 2250 -91 1575 -91 
Q 1294 -91 989 -36 
Q 684 19 347 128 
L 347 722 
Q 666 556 975 473 
Q 1284 391 1588 391 
Q 1994 391 2212 530 
Q 2431 669 2431 922 
Q 2431 1156 2273 1281 
Q 2116 1406 1581 1522 
L 1381 1569 
Q 847 1681 609 1914 
Q 372 2147 372 2553 
Q 372 3047 722 3315 
Q 1072 3584 1716 3584 
Q 2034 3584 2315 3537 
Q 2597 3491 2834 3397 
z
" transform="scale(0.015625)"/>
       <path id="DejaVuSans-68" d="M 3513 2113 
L 3513 0 
L 2938 0 
L 2938 2094 
Q 2938 2591 2744 2837 
Q 2550 3084 2163 3084 
Q 1697 3084 1428 2787 
Q 1159 2491 1159 1978 
L 1159 0 
L 581 0 
L 581 4863 
L 1159 4863 
L 1159 2956 
Q 1366 3272 1645 3428 
Q 1925 3584 2291 3584 
Q 2894 3584 3203 3211 
Q 3513 2838 3513 2113 
z
" transform="scale(0.015625)"/>
       <path id="DejaVuSans-69" d="M 603 3500 
L 1178 3500 
L 1178 0 
L 603 0 
L 603 3500 
z
M 603 4863 
L 1178 4863 
L 1178 4134 
L 603 4134 
L 603 4863 
z
" transform="scale(0.015625)"/>
       <path id="DejaVuSans-66" d="M 2375 4863 
L 2375 4384 
L 1825 4384 
Q 1516 4384 1395 4259 
Q 1275 4134 1275 3809 
L 1275 3500 
L 2222 3500 
L 2222 3053 
L 1275 3053 
L 1275 0 
L 697 0 
L 697 3053 
L 147 3053 
L 147 3500 
L 697 3500 
L 697 3744 
Q 697 4328 969 4595 
Q 1241 4863 1831 4863 
L 2375 4863 
z
" transform="scale(0.015625)"/>
       <path id="DejaVuSans-74" d="M 1172 4494 
L 1172 3500 
L 2356 3500 
L 2356 3053 
L 1172 3053 
L 1172 1153 
Q 1172 725 1289 603 
Q 1406 481 1766 481 
L 2356 481 
L 2356 0 
L 1766 0 
Q 1100 0 847 248 
Q 594 497 594 1153 
L 594 3053 
L 172 3053 
L 172 3500 
L 594 3500 
L 594 4494 
L 1172 4494 
z
" transform="scale(0.015625)"/>
       <path id="DejaVuSans-5b" d="M 550 4863 
L 1875 4863 
L 1875 4416 
L 1125 4416 
L 1125 -397 
L 1875 -397 
L 1875 -844 
L 550 -844 
L 550 4863 
z
" transform="scale(0.015625)"/>
       <path id="DejaVuSans-2218" d="M 2003 2603 
Q 1753 2603 1581 2429 
Q 1409 2256 1409 2006 
Q 1409 1759 1581 1589 
Q 1753 1419 2003 1419 
Q 2253 1419 2425 1589 
Q 2597 1759 2597 2006 
Q 2597 2253 2423 2428 
Q 2250 2603 2003 2603 
z
M 2003 3006 
Q 2203 3006 2387 2929 
Q 2572 2853 2706 2709 
Q 2850 2569 2922 2390 
Q 2994 2212 2994 2006 
Q 2994 1594 2705 1308 
Q 2416 1022 1997 1022 
Q 1575 1022 1294 1303 
Q 1013 1584 1013 2006 
Q 1013 2425 1300 2715 
Q 1588 3006 2003 3006 
z
" transform="scale(0.015625)"/>
       <path id="DejaVuSans-5d" d="M 1947 4863 
L 1947 -844 
L 622 -844 
L 622 -397 
L 1369 -397 
L 1369 4416 
L 622 4416 
L 622 4863 
L 1947 4863 
z
" transform="scale(0.015625)"/>
      </defs>
      <use xlink:href="#DejaVuSans-53" transform="translate(0 0.015625)"/>
      <use xlink:href="#DejaVuSans-50" transform="translate(63.476562 0.015625)"/>
      <use xlink:href="#DejaVuSans-52" transform="translate(123.779297 0.015625)"/>
      <use xlink:href="#DejaVuSans-20" transform="translate(193.261719 0.015625)"/>
      <use xlink:href="#DejaVuSans-73" transform="translate(225.048828 0.015625)"/>
      <use xlink:href="#DejaVuSans-68" transform="translate(277.148438 0.015625)"/>
      <use xlink:href="#DejaVuSans-69" transform="translate(340.527344 0.015625)"/>
      <use xlink:href="#DejaVuSans-66" transform="translate(368.310547 0.015625)"/>
      <use xlink:href="#DejaVuSans-74" transform="translate(403.515625 0.015625)"/>
      <use xlink:href="#DejaVuSans-20" transform="translate(442.724609 0.015625)"/>
      <use xlink:href="#DejaVuSans-5b" transform="translate(474.511719 0.015625)"/>
      <use xlink:href="#DejaVuSans-2218" transform="translate(528.120117 38.296875) scale(0.7)"/>
      <use xlink:href="#DejaVuSans-5d" transform="translate(588.310547 0.015625)"/>
     </g>
    </g>
   </g>
   <g id="matplotlib.axis_2">
    <g id="ytick_1">
     <g id="line2d_7">
      <path d="M 74.18 270.997788 
L 450 270.997788 
" clip-path="url(#p00ab8d350a)" style="fill: none; stroke: #b0b0b0; stroke-opacity: 0.3; stroke-linecap: square"/>
     </g>
     <g id="line2d_8">
      <defs>
       <path id="m4de4bef7a9" d="M 0 0 
L -3.5 0 
" style="stroke: #000000; stroke-width: 0.8"/>
      </defs>
      <g>
       <use xlink:href="#m4de4bef7a9" x="74.18" y="270.997788" style="stroke: #000000; stroke-width: 0.8"/>
      </g>
     </g>
     <g id="text_5">
      <!-- 0.0 -->
      <g transform="translate(38.554375 277.836382) scale(0.18 -0.18)">
       <defs>
        <path id="DejaVuSans-2e" d="M 684 794 
L 1344 794 
L 1344 0 
L 684 0 
L 684 794 
z
" transform="scale(0.015625)"/>
       </defs>
       <use xlink:href="#DejaVuSans-30"/>
       <use xlink:href="#DejaVuSans-2e" x="63.623047"/>
       <use xlink:href="#DejaVuSans-30" x="95.410156"/>
      </g>
     </g>
    </g>
    <g id="ytick_2">
     <g id="line2d_9">
      <path d="M 74.18 220.335492 
L 450 220.335492 
" clip-path="url(#p00ab8d350a)" style="fill: none; stroke: #b0b0b0; stroke-opacity: 0.3; stroke-linecap: square"/>
     </g>
     <g id="line2d_10">
      <g>
       <use xlink:href="#m4de4bef7a9" x="74.18" y="220.335492" style="stroke: #000000; stroke-width: 0.8"/>
      </g>
     </g>
     <g id="text_6">
      <!-- 0.2 -->
      <g transform="translate(38.554375 227.174086) scale(0.18 -0.18)">
       <defs>
        <path id="DejaVuSans-32" d="M 1228 531 
L 3431 531 
L 3431 0 
L 469 0 
L 469 531 
Q 828 903 1448 1529 
Q 2069 2156 2228 2338 
Q 2531 2678 2651 2914 
Q 2772 3150 2772 3378 
Q 2772 3750 2511 3984 
Q 2250 4219 1831 4219 
Q 1534 4219 1204 4116 
Q 875 4013 500 3803 
L 500 4441 
Q 881 4594 1212 4672 
Q 1544 4750 1819 4750 
Q 2544 4750 2975 4387 
Q 3406 4025 3406 3419 
Q 3406 3131 3298 2873 
Q 3191 2616 2906 2266 
Q 2828 2175 2409 1742 
Q 1991 1309 1228 531 
z
" transform="scale(0.015625)"/>
       </defs>
       <use xlink:href="#DejaVuSans-30"/>
       <use xlink:href="#DejaVuSans-2e" x="63.623047"/>
       <use xlink:href="#DejaVuSans-32" x="95.410156"/>
      </g>
     </g>
    </g>
    <g id="ytick_3">
     <g id="line2d_11">
      <path d="M 74.18 169.673196 
L 450 169.673196 
" clip-path="url(#p00ab8d350a)" style="fill: none; stroke: #b0b0b0; stroke-opacity: 0.3; stroke-linecap: square"/>
     </g>
     <g id="line2d_12">
      <g>
       <use xlink:href="#m4de4bef7a9" x="74.18" y="169.673196" style="stroke: #000000; stroke-width: 0.8"/>
      </g>
     </g>
     <g id="text_7">
      <!-- 0.4 -->
      <g transform="translate(38.554375 176.51179) scale(0.18 -0.18)">
       <defs>
        <path id="DejaVuSans-34" d="M 2419 4116 
L 825 1625 
L 2419 1625 
L 2419 4116 
z
M 2253 4666 
L 3047 4666 
L 3047 1625 
L 3713 1625 
L 3713 1100 
L 3047 1100 
L 3047 0 
L 2419 0 
L 2419 1100 
L 313 1100 
L 313 1709 
L 2253 4666 
z
" transform="scale(0.015625)"/>
       </defs>
       <use xlink:href="#DejaVuSans-30"/>
       <use xlink:href="#DejaVuSans-2e" x="63.623047"/>
       <use xlink:href="#DejaVuSans-34" x="95.410156"/>
      </g>
     </g>
    </g>
    <g id="ytick_4">
     <g id="line2d_13">
      <path d="M 74.18 119.0109 
L 450 119.0109 
" clip-path="url(#p00ab8d350a)" style="fill: none; stroke: #b0b0b0; stroke-opacity: 0.3; stroke-linecap: square"/>
     </g>
     <g id="line2d_14">
      <g>
       <use xlink:href="#m4de4bef7a9" x="74.18" y="119.0109" style="stroke: #000000; stroke-width: 0.8"/>
      </g>
     </g>
     <g id="text_8">
      <!-- 0.6 -->
      <g transform="translate(38.554375 125.849493) scale(0.18 -0.18)">
       <defs>
        <path id="DejaVuSans-36" d="M 2113 2584 
Q 1688 2584 1439 2293 
Q 1191 2003 1191 1497 
Q 1191 994 1439 701 
Q 1688 409 2113 409 
Q 2538 409 2786 701 
Q 3034 994 3034 1497 
Q 3034 2003 2786 2293 
Q 2538 2584 2113 2584 
z
M 3366 4563 
L 3366 3988 
Q 3128 4100 2886 4159 
Q 2644 4219 2406 4219 
Q 1781 4219 1451 3797 
Q 1122 3375 1075 2522 
Q 1259 2794 1537 2939 
Q 1816 3084 2150 3084 
Q 2853 3084 3261 2657 
Q 3669 2231 3669 1497 
Q 3669 778 3244 343 
Q 2819 -91 2113 -91 
Q 1303 -91 875 529 
Q 447 1150 447 2328 
Q 447 3434 972 4092 
Q 1497 4750 2381 4750 
Q 2619 4750 2861 4703 
Q 3103 4656 3366 4563 
z
" transform="scale(0.015625)"/>
       </defs>
       <use xlink:href="#DejaVuSans-30"/>
       <use xlink:href="#DejaVuSans-2e" x="63.623047"/>
       <use xlink:href="#DejaVuSans-36" x="95.410156"/>
      </g>
     </g>
    </g>
    <g id="ytick_5">
     <g id="line2d_15">
      <path d="M 74.18 68.348604 
L 450 68.348604 
" clip-path="url(#p00ab8d350a)" style="fill: none; stroke: #b0b0b0; stroke-opacity: 0.3; stroke-linecap: square"/>
     </g>
     <g id="line2d_16">
      <g>
       <use xlink:href="#m4de4bef7a9" x="74.18" y="68.348604" style="stroke: #000000; stroke-width: 0.8"/>
      </g>
     </g>
     <g id="text_9">
      <!-- 0.8 -->
      <g transform="translate(38.554375 75.187197) scale(0.18 -0.18)">
       <defs>
        <path id="DejaVuSans-38" d="M 2034 2216 
Q 1584 2216 1326 1975 
Q 1069 1734 1069 1313 
Q 1069 891 1326 650 
Q 1584 409 2034 409 
Q 2484 409 2743 651 
Q 3003 894 3003 1313 
Q 3003 1734 2745 1975 
Q 2488 2216 2034 2216 
z
M 1403 2484 
Q 997 2584 770 2862 
Q 544 3141 544 3541 
Q 544 4100 942 4425 
Q 1341 4750 2034 4750 
Q 2731 4750 3128 4425 
Q 3525 4100 3525 3541 
Q 3525 3141 3298 2862 
Q 3072 2584 2669 2484 
Q 3125 2378 3379 2068 
Q 3634 1759 3634 1313 
Q 3634 634 3220 271 
Q 2806 -91 2034 -91 
Q 1263 -91 848 271 
Q 434 634 434 1313 
Q 434 1759 690 2068 
Q 947 2378 1403 2484 
z
M 1172 3481 
Q 1172 3119 1398 2916 
Q 1625 2713 2034 2713 
Q 2441 2713 2670 2916 
Q 2900 3119 2900 3481 
Q 2900 3844 2670 4047 
Q 2441 4250 2034 4250 
Q 1625 4250 1398 4047 
Q 1172 3844 1172 3481 
z
" transform="scale(0.015625)"/>
       </defs>
       <use xlink:href="#DejaVuSans-30"/>
       <use xlink:href="#DejaVuSans-2e" x="63.623047"/>
       <use xlink:href="#DejaVuSans-38" x="95.410156"/>
      </g>
     </g>
    </g>
    <g id="ytick_6">
     <g id="line2d_17">
      <path d="M 74.18 17.686308 
L 450 17.686308 
" clip-path="url(#p00ab8d350a)" style="fill: none; stroke: #b0b0b0; stroke-opacity: 0.3; stroke-linecap: square"/>
     </g>
     <g id="line2d_18">
      <g>
       <use xlink:href="#m4de4bef7a9" x="74.18" y="17.686308" style="stroke: #000000; stroke-width: 0.8"/>
      </g>
     </g>
     <g id="text_10">
      <!-- 1.0 -->
      <g transform="translate(38.554375 24.524901) scale(0.18 -0.18)">
       <use xlink:href="#DejaVuSans-31"/>
       <use xlink:href="#DejaVuSans-2e" x="63.623047"/>
       <use xlink:href="#DejaVuSans-30" x="95.410156"/>
      </g>
     </g>
    </g>
    <g id="text_11">
     <!-- Reflectance -->
     <g transform="translate(29.563125 217.880995) rotate(-90) scale(0.24 -0.24)">
      <defs>
       <path id="DejaVuSans-65" d="M 3597 1894 
L 3597 1613 
L 953 1613 
Q 991 1019 1311 708 
Q 1631 397 2203 397 
Q 2534 397 2845 478 
Q 3156 559 3463 722 
L 3463 178 
Q 3153 47 2828 -22 
Q 2503 -91 2169 -91 
Q 1331 -91 842 396 
Q 353 884 353 1716 
Q 353 2575 817 3079 
Q 1281 3584 2069 3584 
Q 2775 3584 3186 3129 
Q 3597 2675 3597 1894 
z
M 3022 2063 
Q 3016 2534 2758 2815 
Q 2500 3097 2075 3097 
Q 1594 3097 1305 2825 
Q 1016 2553 972 2059 
L 3022 2063 
z
" transform="scale(0.015625)"/>
       <path id="DejaVuSans-6c" d="M 603 4863 
L 1178 4863 
L 1178 0 
L 603 0 
L 603 4863 
z
" transform="scale(0.015625)"/>
       <path id="DejaVuSans-63" d="M 3122 3366 
L 3122 2828 
Q 2878 2963 2633 3030 
Q 2388 3097 2138 3097 
Q 1578 3097 1268 2742 
Q 959 2388 959 1747 
Q 959 1106 1268 751 
Q 1578 397 2138 397 
Q 2388 397 2633 464 
Q 2878 531 3122 666 
L 3122 134 
Q 2881 22 2623 -34 
Q 2366 -91 2075 -91 
Q 1284 -91 818 406 
Q 353 903 353 1747 
Q 353 2603 823 3093 
Q 1294 3584 2113 3584 
Q 2378 3584 2631 3529 
Q 2884 3475 3122 3366 
z
" transform="scale(0.015625)"/>
       <path id="DejaVuSans-61" d="M 2194 1759 
Q 1497 1759 1228 1600 
Q 959 1441 959 1056 
Q 959 750 1161 570 
Q 1363 391 1709 391 
Q 2188 391 2477 730 
Q 2766 1069 2766 1631 
L 2766 1759 
L 2194 1759 
z
M 3341 1997 
L 3341 0 
L 2766 0 
L 2766 531 
Q 2569 213 2275 61 
Q 1981 -91 1556 -91 
Q 1019 -91 701 211 
Q 384 513 384 1019 
Q 384 1609 779 1909 
Q 1175 2209 1959 2209 
L 2766 2209 
L 2766 2266 
Q 2766 2663 2505 2880 
Q 2244 3097 1772 3097 
Q 1472 3097 1187 3025 
Q 903 2953 641 2809 
L 641 3341 
Q 956 3463 1253 3523 
Q 1550 3584 1831 3584 
Q 2591 3584 2966 3190 
Q 3341 2797 3341 1997 
z
" transform="scale(0.015625)"/>
       <path id="DejaVuSans-6e" d="M 3513 2113 
L 3513 0 
L 2938 0 
L 2938 2094 
Q 2938 2591 2744 2837 
Q 2550 3084 2163 3084 
Q 1697 3084 1428 2787 
Q 1159 2491 1159 1978 
L 1159 0 
L 581 0 
L 581 3500 
L 1159 3500 
L 1159 2956 
Q 1366 3272 1645 3428 
Q 1925 3584 2291 3584 
Q 2894 3584 3203 3211 
Q 3513 2838 3513 2113 
z
" transform="scale(0.015625)"/>
      </defs>
      <use xlink:href="#DejaVuSans-52"/>
      <use xlink:href="#DejaVuSans-65" x="64.982422"/>
      <use xlink:href="#DejaVuSans-66" x="126.505859"/>
      <use xlink:href="#DejaVuSans-6c" x="161.710938"/>
      <use xlink:href="#DejaVuSans-65" x="189.494141"/>
      <use xlink:href="#DejaVuSans-63" x="251.017578"/>
      <use xlink:href="#DejaVuSans-74" x="305.998047"/>
      <use xlink:href="#DejaVuSans-61" x="345.207031"/>
      <use xlink:href="#DejaVuSans-6e" x="406.486328"/>
      <use xlink:href="#DejaVuSans-63" x="469.865234"/>
      <use xlink:href="#DejaVuSans-65" x="524.845703"/>
     </g>
    </g>
   </g>
   <g id="line2d_19">
    <path d="M 91.262727 25.353863 
L 98.235269 26.835165 
L 105.207811 33.601779 
L 112.180353 65.548884 
L 119.152894 216.801985 
L 126.125436 207.475282 
L 133.097978 111.196526 
L 140.070519 77.077114 
L 147.043061 62.348917 
L 154.015603 54.585952 
L 160.988145 49.918847 
L 167.960686 46.852671 
L 174.933228 44.708087 
L 181.90577 43.137525 
L 188.878312 41.946585 
L 195.850853 41.018768 
L 202.823395 40.280323 
L 209.795937 39.682427 
L 216.768479 39.191539 
L 223.74102 38.783888 
L 230.713562 38.442167 
L 237.686104 38.153485 
L 244.658646 37.908041 
L 251.631187 37.698249 
L 258.603729 37.518141 
L 265.576271 37.362955 
L 272.548813 37.228838 
L 279.521354 37.112638 
L 286.493896 37.011743 
L 293.466438 36.923966 
L 300.43898 36.847459 
L 307.411521 36.780643 
L 314.384063 36.722155 
L 321.356605 36.670811 
L 328.329147 36.625566 
L 335.301688 36.585496 
L 342.27423 36.549772 
L 349.246772 36.517644 
L 356.219314 36.488426 
L 363.191855 36.461486 
L 370.164397 36.436232 
L 377.136939 36.412111 
L 384.109481 36.388593 
L 391.082022 36.365173 
L 398.054564 36.341361 
L 405.027106 36.316679 
L 411.999647 36.290657 
L 418.972189 36.26283 
L 425.944731 36.232737 
L 432.917273 36.199913 
" clip-path="url(#p00ab8d350a)" style="fill: none; stroke: #1f77b4; stroke-width: 1.5; stroke-linecap: square"/>
   </g>
   <g id="line2d_20">
    <path d="M 91.262727 25.320137 
L 98.235269 25.404086 
L 105.207811 26.507616 
L 112.180353 30.726927 
L 119.152894 46.3607 
L 126.125436 113.486613 
L 133.097978 268.041447 
L 140.070519 176.348977 
L 147.043061 105.583771 
L 154.015603 77.312943 
L 160.988145 63.799374 
L 167.960686 56.238485 
L 174.933228 51.521918 
L 181.90577 48.346511 
L 188.878312 46.08696 
L 195.850853 44.410916 
L 202.823395 43.127254 
L 209.795937 42.119009 
L 216.768479 41.310918 
L 223.74102 40.652512 
L 230.713562 40.108755 
L 237.686104 39.654604 
L 244.658646 39.271699 
L 251.631187 38.946282 
L 258.603729 38.66784 
L 265.576271 38.428203 
L 272.548813 38.22092 
L 279.521354 38.040826 
L 286.493896 37.883732 
L 293.466438 37.746203 
L 300.43898 37.625386 
L 307.411521 37.518887 
L 314.384063 37.424679 
L 321.356605 37.34103 
L 328.329147 37.266438 
L 335.301688 37.199599 
L 342.27423 37.13936 
L 349.246772 37.084699 
L 356.219314 37.034696 
L 363.191855 36.988519 
L 370.164397 36.945405 
L 377.136939 36.904648 
L 384.109481 36.86559 
L 391.082022 36.827611 
L 398.054564 36.790119 
L 405.027106 36.752548 
L 411.999647 36.714349 
L 418.972189 36.674988 
L 425.944731 36.633939 
L 432.917273 36.590682 
" clip-path="url(#p00ab8d350a)" style="fill: none; stroke: #ff7f0e; stroke-width: 1.5; stroke-linecap: square"/>
   </g>
   <g id="line2d_21">
    <path d="M 91.262727 25.592991 
L 98.235269 25.367905 
L 105.207811 25.41705 
L 112.180353 26.132647 
L 119.152894 28.599019 
L 126.125436 36.254006 
L 133.097978 62.223266 
L 140.070519 157.607848 
L 147.043061 268.00621 
L 154.015603 169.47846 
L 160.988145 107.616217 
L 167.960686 80.491083 
L 174.933228 66.753265 
L 181.90577 58.807667 
L 188.878312 53.749129 
L 195.850853 50.297491 
L 202.823395 47.818129 
L 209.795937 45.96606 
L 216.768479 44.539656 
L 223.74102 43.414028 
L 230.713562 42.508075 
L 237.686104 41.767019 
L 244.658646 41.152624 
L 251.631187 40.637432 
L 258.603729 40.20124 
L 265.576271 39.828864 
L 272.548813 39.508675 
L 279.521354 39.231614 
L 286.493896 38.99052 
L 293.466438 38.779649 
L 300.43898 38.594342 
L 307.411521 38.430767 
L 314.384063 38.285744 
L 321.356605 38.156602 
L 328.329147 38.041079 
L 335.301688 37.937234 
L 342.27423 37.843393 
L 349.246772 37.758091 
L 356.219314 37.680039 
L 363.191855 37.60809 
L 370.164397 37.541212 
L 377.136939 37.478469 
L 384.109481 37.419003 
L 391.082022 37.362023 
L 398.054564 37.306786 
L 405.027106 37.252593 
L 411.999647 37.198782 
L 418.972189 37.144714 
L 425.944731 37.089773 
L 432.917273 37.033361 
" clip-path="url(#p00ab8d350a)" style="fill: none; stroke: #2ca02c; stroke-width: 1.5; stroke-linecap: square"/>
   </g>
   <g id="line2d_22">
    <path d="M 91.262727 26.223137 
L 98.235269 25.949515 
L 105.207811 25.708081 
L 112.180353 25.527891 
L 119.152894 25.472497 
L 126.125436 25.675097 
L 133.097978 26.423633 
L 140.070519 28.38315 
L 147.043061 33.243533 
L 154.015603 45.858032 
L 160.988145 81.836132 
L 167.960686 181.180351 
L 174.933228 269.708102 
L 181.90577 193.181105 
L 188.878312 127.864137 
L 195.850853 95.000414 
L 202.823395 77.456207 
L 209.795937 67.083799 
L 216.768479 60.415554 
L 223.74102 55.845304 
L 230.713562 52.555637 
L 237.686104 50.095627 
L 244.658646 48.199483 
L 251.631187 46.701779 
L 258.603729 45.494812 
L 265.576271 44.505754 
L 272.548813 43.683759 
L 279.521354 42.99233 
L 286.493896 42.404639 
L 293.466438 41.900545 
L 300.43898 41.464647 
L 307.411521 41.084964 
L 314.384063 40.752042 
L 321.356605 40.458312 
L 328.329147 40.19764 
L 335.301688 39.964996 
L 342.27423 39.756207 
L 349.246772 39.567778 
L 356.219314 39.396746 
L 363.191855 39.24058 
L 370.164397 39.097094 
L 377.136939 38.96438 
L 384.109481 38.840761 
L 391.082022 38.724742 
L 398.054564 38.614987 
L 405.027106 38.51028 
L 411.999647 38.409514 
L 418.972189 38.311663 
L 425.944731 38.215774 
L 432.917273 38.120952 
" clip-path="url(#p00ab8d350a)" style="fill: none; stroke: #d62728; stroke-width: 1.5; stroke-linecap: square"/>
   </g>
   <g id="line2d_23">
    <path d="M 91.262727 26.499636 
L 98.235269 26.252954 
L 105.207811 26.019334 
L 112.180353 25.806818 
L 119.152894 25.635392 
L 126.125436 25.545078 
L 133.097978 25.613529 
L 140.070519 25.994367 
L 147.043061 27.005655 
L 154.015603 29.351199 
L 160.988145 34.731328 
L 167.960686 47.713251 
L 174.933228 81.689897 
L 181.90577 168.729619 
L 188.878312 268.897878 
L 195.850853 217.942464 
L 202.823395 146.706709 
L 209.795937 107.29845 
L 216.768479 85.896232 
L 223.74102 73.256866 
L 230.713562 65.174999 
L 237.686104 59.668902 
L 244.658646 55.727325 
L 251.631187 52.793721 
L 258.603729 50.541402 
L 265.576271 48.767994 
L 272.548813 47.342362 
L 279.521354 46.176242 
L 286.493896 45.20827 
L 293.466438 44.394585 
L 300.43898 43.703065 
L 307.411521 43.109679 
L 314.384063 42.59611 
L 321.356605 42.148158 
L 328.329147 41.754646 
L 335.301688 41.406651 
L 342.27423 41.09696 
L 349.246772 40.819672 
L 356.219314 40.569904 
L 363.191855 40.343571 
L 370.164397 40.137223 
L 377.136939 39.947913 
L 384.109481 39.773102 
L 391.082022 39.61058 
L 398.054564 39.458406 
L 405.027106 39.314856 
L 411.999647 39.178388 
L 418.972189 39.047607 
L 425.944731 38.921242 
L 432.917273 38.798121 
" clip-path="url(#p00ab8d350a)" style="fill: none; stroke: #9467bd; stroke-width: 1.5; stroke-linecap: square"/>
   </g>
   <g id="patch_3">
    <path d="M 74.18 281.9275 
L 74.18 13.100739 
" style="fill: none; stroke: #000000; stroke-width: 0.8; stroke-linejoin: miter; stroke-linecap: square"/>
   </g>
   <g id="patch_4">
    <path d="M 74.18 281.9275 
L 450 281.9275 
" style="fill: none; stroke: #000000; stroke-width: 0.8; stroke-linejoin: miter; stroke-linecap: square"/>
   </g>
   <g id="legend_1">
    <g id="patch_5">
     <path d="M 281.18 274.9275 
L 439.4 274.9275 
Q 443 274.9275 443 271.3275 
L 443 141.024375 
Q 443 137.424375 439.4 137.424375 
L 281.18 137.424375 
Q 277.58 137.424375 277.58 141.024375 
L 277.58 271.3275 
Q 277.58 274.9275 281.18 274.9275 
z
" style="fill: #4d4d4d; opacity: 0.5; stroke: #4d4d4d; stroke-linejoin: miter"/>
    </g>
    <g id="patch_6">
     <path d="M 279.18 272.9275 
L 437.4 272.9275 
Q 441 272.9275 441 269.3275 
L 441 139.024375 
Q 441 135.424375 437.4 135.424375 
L 279.18 135.424375 
Q 275.58 135.424375 275.58 139.024375 
L 275.58 269.3275 
Q 275.58 272.9275 279.18 272.9275 
z
" style="fill: #ffffff; stroke: #cccccc; stroke-linejoin: miter"/>
    </g>
    <g id="line2d_24">
     <path d="M 282.78 150.001562 
L 300.78 150.001562 
L 318.78 150.001562 
" style="fill: none; stroke: #1f77b4; stroke-width: 1.5; stroke-linecap: square"/>
    </g>
    <g id="text_12">
     <!-- $h_{BSA}$ 0 nm -->
     <g transform="translate(333.18 156.301562) scale(0.18 -0.18)">
      <defs>
       <path id="DejaVuSans-Oblique-68" d="M 3566 2113 
L 3156 0 
L 2578 0 
L 2988 2091 
Q 3016 2238 3031 2350 
Q 3047 2463 3047 2528 
Q 3047 2791 2881 2937 
Q 2716 3084 2419 3084 
Q 1956 3084 1617 2771 
Q 1278 2459 1178 1941 
L 800 0 
L 225 0 
L 1172 4863 
L 1747 4863 
L 1375 2950 
Q 1594 3244 1934 3414 
Q 2275 3584 2650 3584 
Q 3113 3584 3367 3334 
Q 3622 3084 3622 2631 
Q 3622 2519 3608 2391 
Q 3594 2263 3566 2113 
z
" transform="scale(0.015625)"/>
       <path id="DejaVuSans-Oblique-42" d="M 1081 4666 
L 2694 4666 
Q 3350 4666 3675 4422 
Q 4000 4178 4000 3688 
Q 4000 3238 3720 2911 
Q 3441 2584 2988 2516 
Q 3375 2428 3569 2181 
Q 3763 1934 3763 1522 
Q 3763 819 3242 409 
Q 2722 0 1819 0 
L 172 0 
L 1081 4666 
z
M 1234 2228 
L 903 519 
L 1919 519 
Q 2491 519 2800 781 
Q 3109 1044 3109 1522 
Q 3109 1891 2904 2059 
Q 2700 2228 2247 2228 
L 1234 2228 
z
M 1606 4147 
L 1331 2741 
L 2272 2741 
Q 2775 2741 3058 2959 
Q 3341 3178 3341 3566 
Q 3341 3869 3150 4008 
Q 2959 4147 2541 4147 
L 1606 4147 
z
" transform="scale(0.015625)"/>
       <path id="DejaVuSans-Oblique-53" d="M 3859 4513 
L 3738 3897 
Q 3422 4066 3111 4152 
Q 2800 4238 2509 4238 
Q 1944 4238 1609 3991 
Q 1275 3744 1275 3334 
Q 1275 3109 1398 2989 
Q 1522 2869 2034 2731 
L 2413 2638 
Q 3053 2472 3303 2217 
Q 3553 1963 3553 1503 
Q 3553 797 2998 353 
Q 2444 -91 1538 -91 
Q 1166 -91 791 -17 
Q 416 56 38 206 
L 166 856 
Q 513 641 861 531 
Q 1209 422 1556 422 
Q 2147 422 2503 684 
Q 2859 947 2859 1369 
Q 2859 1650 2717 1795 
Q 2575 1941 2106 2059 
L 1728 2156 
Q 1081 2325 845 2545 
Q 609 2766 609 3163 
Q 609 3859 1145 4304 
Q 1681 4750 2541 4750 
Q 2875 4750 3203 4690 
Q 3531 4631 3859 4513 
z
" transform="scale(0.015625)"/>
       <path id="DejaVuSans-Oblique-41" d="M 2356 4666 
L 3072 4666 
L 3938 0 
L 3278 0 
L 3084 1197 
L 984 1197 
L 325 0 
L -341 0 
L 2356 4666 
z
M 2584 4044 
L 1275 1722 
L 2988 1722 
L 2584 4044 
z
" transform="scale(0.015625)"/>
       <path id="DejaVuSans-6d" d="M 3328 2828 
Q 3544 3216 3844 3400 
Q 4144 3584 4550 3584 
Q 5097 3584 5394 3201 
Q 5691 2819 5691 2113 
L 5691 0 
L 5113 0 
L 5113 2094 
Q 5113 2597 4934 2840 
Q 4756 3084 4391 3084 
Q 3944 3084 3684 2787 
Q 3425 2491 3425 1978 
L 3425 0 
L 2847 0 
L 2847 2094 
Q 2847 2600 2669 2842 
Q 2491 3084 2119 3084 
Q 1678 3084 1418 2786 
Q 1159 2488 1159 1978 
L 1159 0 
L 581 0 
L 581 3500 
L 1159 3500 
L 1159 2956 
Q 1356 3278 1631 3431 
Q 1906 3584 2284 3584 
Q 2666 3584 2933 3390 
Q 3200 3197 3328 2828 
z
" transform="scale(0.015625)"/>
      </defs>
      <use xlink:href="#DejaVuSans-Oblique-68" transform="translate(0 0.015625)"/>
      <use xlink:href="#DejaVuSans-Oblique-42" transform="translate(63.378906 -16.390625) scale(0.7)"/>
      <use xlink:href="#DejaVuSans-Oblique-53" transform="translate(111.401367 -16.390625) scale(0.7)"/>
      <use xlink:href="#DejaVuSans-Oblique-41" transform="translate(155.834961 -16.390625) scale(0.7)"/>
      <use xlink:href="#DejaVuSans-20" transform="translate(206.455078 0.015625)"/>
      <use xlink:href="#DejaVuSans-30" transform="translate(238.242188 0.015625)"/>
      <use xlink:href="#DejaVuSans-20" transform="translate(301.865234 0.015625)"/>
      <use xlink:href="#DejaVuSans-6e" transform="translate(333.652344 0.015625)"/>
      <use xlink:href="#DejaVuSans-6d" transform="translate(397.03125 0.015625)"/>
     </g>
    </g>
    <g id="line2d_25">
     <path d="M 282.78 176.422187 
L 300.78 176.422187 
L 318.78 176.422187 
" style="fill: none; stroke: #ff7f0e; stroke-width: 1.5; stroke-linecap: square"/>
    </g>
    <g id="text_13">
     <!-- $h_{BSA}$ 10 nm -->
     <g transform="translate(333.18 182.722187) scale(0.18 -0.18)">
      <use xlink:href="#DejaVuSans-Oblique-68" transform="translate(0 0.015625)"/>
      <use xlink:href="#DejaVuSans-Oblique-42" transform="translate(63.378906 -16.390625) scale(0.7)"/>
      <use xlink:href="#DejaVuSans-Oblique-53" transform="translate(111.401367 -16.390625) scale(0.7)"/>
      <use xlink:href="#DejaVuSans-Oblique-41" transform="translate(155.834961 -16.390625) scale(0.7)"/>
      <use xlink:href="#DejaVuSans-20" transform="translate(206.455078 0.015625)"/>
      <use xlink:href="#DejaVuSans-31" transform="translate(238.242188 0.015625)"/>
      <use xlink:href="#DejaVuSans-30" transform="translate(301.865234 0.015625)"/>
      <use xlink:href="#DejaVuSans-20" transform="translate(365.488281 0.015625)"/>
      <use xlink:href="#DejaVuSans-6e" transform="translate(397.275391 0.015625)"/>
      <use xlink:href="#DejaVuSans-6d" transform="translate(460.654297 0.015625)"/>
     </g>
    </g>
    <g id="line2d_26">
     <path d="M 282.78 202.842812 
L 300.78 202.842812 
L 318.78 202.842812 
" style="fill: none; stroke: #2ca02c; stroke-width: 1.5; stroke-linecap: square"/>
    </g>
    <g id="text_14">
     <!-- $h_{BSA}$ 20 nm -->
     <g transform="translate(333.18 209.142812) scale(0.18 -0.18)">
      <use xlink:href="#DejaVuSans-Oblique-68" transform="translate(0 0.015625)"/>
      <use xlink:href="#DejaVuSans-Oblique-42" transform="translate(63.378906 -16.390625) scale(0.7)"/>
      <use xlink:href="#DejaVuSans-Oblique-53" transform="translate(111.401367 -16.390625) scale(0.7)"/>
      <use xlink:href="#DejaVuSans-Oblique-41" transform="translate(155.834961 -16.390625) scale(0.7)"/>
      <use xlink:href="#DejaVuSans-20" transform="translate(206.455078 0.015625)"/>
      <use xlink:href="#DejaVuSans-32" transform="translate(238.242188 0.015625)"/>
      <use xlink:href="#DejaVuSans-30" transform="translate(301.865234 0.015625)"/>
      <use xlink:href="#DejaVuSans-20" transform="translate(365.488281 0.015625)"/>
      <use xlink:href="#DejaVuSans-6e" transform="translate(397.275391 0.015625)"/>
      <use xlink:href="#DejaVuSans-6d" transform="translate(460.654297 0.015625)"/>
     </g>
    </g>
    <g id="line2d_27">
     <path d="M 282.78 229.263437 
L 300.78 229.263437 
L 318.78 229.263437 
" style="fill: none; stroke: #d62728; stroke-width: 1.5; stroke-linecap: square"/>
    </g>
    <g id="text_15">
     <!-- $h_{BSA}$ 40 nm -->
     <g transform="translate(333.18 235.563437) scale(0.18 -0.18)">
      <use xlink:href="#DejaVuSans-Oblique-68" transform="translate(0 0.015625)"/>
      <use xlink:href="#DejaVuSans-Oblique-42" transform="translate(63.378906 -16.390625) scale(0.7)"/>
      <use xlink:href="#DejaVuSans-Oblique-53" transform="translate(111.401367 -16.390625) scale(0.7)"/>
      <use xlink:href="#DejaVuSans-Oblique-41" transform="translate(155.834961 -16.390625) scale(0.7)"/>
      <use xlink:href="#DejaVuSans-20" transform="translate(206.455078 0.015625)"/>
      <use xlink:href="#DejaVuSans-34" transform="translate(238.242188 0.015625)"/>
      <use xlink:href="#DejaVuSans-30" transform="translate(301.865234 0.015625)"/>
      <use xlink:href="#DejaVuSans-20" transform="translate(365.488281 0.015625)"/>
      <use xlink:href="#DejaVuSans-6e" transform="translate(397.275391 0.015625)"/>
      <use xlink:href="#DejaVuSans-6d" transform="translate(460.654297 0.015625)"/>
     </g>
    </g>
    <g id="line2d_28">
     <path d="M 282.78 255.684062 
L 300.78 255.684062 
L 318.78 255.684062 
" style="fill: none; stroke: #9467bd; stroke-width: 1.5; stroke-linecap: square"/>
    </g>
    <g id="text_16">
     <!-- $h_{BSA}$ 50 nm -->
     <g transform="translate(333.18 261.984062) scale(0.18 -0.18)">
      <use xlink:href="#DejaVuSans-Oblique-68" transform="translate(0 0.015625)"/>
      <use xlink:href="#DejaVuSans-Oblique-42" transform="translate(63.378906 -16.390625) scale(0.7)"/>
      <use xlink:href="#DejaVuSans-Oblique-53" transform="translate(111.401367 -16.390625) scale(0.7)"/>
      <use xlink:href="#DejaVuSans-Oblique-41" transform="translate(155.834961 -16.390625) scale(0.7)"/>
      <use xlink:href="#DejaVuSans-20" transform="translate(206.455078 0.015625)"/>
      <use xlink:href="#DejaVuSans-35" transform="translate(238.242188 0.015625)"/>
      <use xlink:href="#DejaVuSans-30" transform="translate(301.865234 0.015625)"/>
      <use xlink:href="#DejaVuSans-20" transform="translate(365.488281 0.015625)"/>
      <use xlink:href="#DejaVuSans-6e" transform="translate(397.275391 0.015625)"/>
      <use xlink:href="#DejaVuSans-6d" transform="translate(460.654297 0.015625)"/>
     </g>
    </g>
   </g>
  </g>
 </g>
 <defs>
  <clipPath id="p00ab8d350a">
   <rect x="74.18" y="13.100739" width="375.82" height="268.826761"/>
  </clipPath>
 </defs>
</svg>
